<?xml version="1.0" encoding="UTF-8" standalone="no"?>
<!DOCTYPE svg PUBLIC "-//W3C//DTD SVG 1.1//EN" "http://www.w3.org/Graphics/SVG/1.1/DTD/svg11.dtd">
<svg width="100%" height="100%" viewBox="0 0 50 50" version="1.1" xmlns="http://www.w3.org/2000/svg" xmlns:xlink="http://www.w3.org/1999/xlink" xml:space="preserve" xmlns:serif="http://www.serif.com/" style="fill-rule:evenodd;clip-rule:evenodd;stroke-miterlimit:10;">
    <g transform="matrix(2.64155,0,0,2.64155,-40.0408,-39.3644)">
        <path d="M33.08,24.065C33.08,28.864 29.19,32.753 24.392,32.753C19.594,32.753 15.704,28.864 15.704,24.065L15.704,23.895C15.704,19.096 19.594,15.207 24.392,15.207C29.191,15.207 33.08,19.097 33.08,23.895L33.08,24.065ZM28.821,28.351C28.821,28.351 29.315,28.351 24.391,28.351C22.789,28.351 19.962,28.485 19.962,28.351C19.962,25.694 21.945,23.539 24.391,23.539C26.839,23.539 28.821,25.694 28.821,28.351ZM26.648,20.941C26.648,22.187 25.637,23.199 24.391,23.199C23.144,23.199 22.134,22.187 22.134,20.941L22.134,20.685C22.134,19.439 23.144,18.428 24.391,18.428C25.637,18.428 26.648,19.439 26.648,20.685L26.648,20.941Z" style="fill:white;stroke:white;stroke-opacity:0;stroke-width:1px;"/>
    </g>
</svg>
